<?xml version="1.0" standalone="no"?>
<!DOCTYPE svg PUBLIC "-//W3C//DTD SVG 20010904//EN"
 "http://www.w3.org/TR/2001/REC-SVG-20010904/DTD/svg10.dtd">
<svg version="1.0" xmlns="http://www.w3.org/2000/svg"
 width="700.000000pt" height="700.000000pt" viewBox="0 0 700.000000 700.000000"
 preserveAspectRatio="xMidYMid meet">
<metadata>
Created by potrace 1.14, written by Peter Selinger 2001-2017
</metadata>
<g transform="translate(0.000000,700.000000) scale(0.100000,-0.100000)"
fill="#000000" stroke="none">
<path d="M3278 6995 c-1 -1 -42 -5 -89 -9 -47 -4 -95 -8 -105 -10 -10 -2 -41
-7 -69 -10 -406 -53 -847 -201 -1230 -414 -73 -41 -333 -208 -345 -221 -3 -3
-43 -35 -90 -71 -47 -35 -98 -76 -114 -90 -385 -334 -676 -710 -887 -1147 -32
-68 -59 -125 -59 -128 0 -3 -9 -24 -20 -48 -57 -123 -157 -435 -186 -582 -2
-11 -10 -54 -19 -95 -22 -115 -30 -160 -41 -255 -26 -230 -26 -667 1 -826 2
-13 6 -46 9 -74 9 -78 22 -152 51 -285 21 -96 91 -339 114 -395 5 -11 25 -65
46 -120 64 -170 213 -461 314 -615 213 -323 469 -603 771 -845 92 -74 370
-265 386 -265 4 0 15 -6 23 -14 26 -23 258 -139 390 -195 270 -116 598 -208
880 -247 25 -3 57 -8 71 -10 162 -25 683 -25 841 1 13 2 47 7 74 10 71 10 87
13 115 18 14 3 43 8 65 12 22 4 76 16 120 27 44 10 87 21 96 23 35 8 168 48
239 72 557 188 1090 542 1480 982 36 41 70 79 76 85 6 6 48 61 94 121 150 197
277 405 383 628 26 53 47 99 47 102 0 2 11 28 24 57 57 127 151 421 182 573
17 81 54 301 59 350 4 33 9 71 11 85 9 47 11 525 4 605 -15 157 -21 210 -25
225 -2 8 -7 35 -10 60 -17 129 -80 384 -136 552 -400 1190 -1419 2085 -2647
2323 -42 9 -93 18 -112 20 -19 3 -46 7 -60 10 -13 2 -52 7 -86 11 -33 3 -74 8
-90 10 -33 5 -540 14 -546 9z"/>
</g>
</svg>
